<svg xmlns="http://www.w3.org/2000/svg" viewBox="0 0 64 64" role="img" aria-label="BlackCurate Labs logo">
  <defs>
    <linearGradient id="g" x1="8" y1="8" x2="56" y2="56" gradientUnits="userSpaceOnUse">
      <stop stop-color="#2563EB"/>
      <stop offset="1" stop-color="#38BDF8"/>
    </linearGradient>
  </defs>
  <rect width="64" height="64" rx="16" fill="#0B1120"/>
  <rect x="1" y="1" width="62" height="62" rx="15" fill="none" stroke="url(#g)" stroke-opacity=".7" stroke-width="2"/>
  <path d="M18 20h16c6.2 0 10 3.2 10 8.2 0 3.3-1.6 5.7-4.2 7 3.7 1.1 6.2 3.9 6.2 7.9 0 5.6-4.3 8.9-11.3 8.9H18V20Zm15.1 12.8c3 0 4.8-1.3 4.8-3.7s-1.7-3.6-4.8-3.6h-8.7v7.3h8.7Zm1.2 13.7c3.4 0 5.3-1.5 5.3-4.1 0-2.7-1.9-4.1-5.3-4.1h-9.9v8.2h9.9Z" fill="#F8FAFC"/>
</svg>
